<?xml version="1.0" encoding="UTF-8" standalone="no"?>
<!DOCTYPE svg PUBLIC "-//W3C//DTD SVG 1.1//EN" "http://www.w3.org/Graphics/SVG/1.1/DTD/svg11.dtd">
<svg width="100%" height="100%" viewBox="0 0 172 40" version="1.1" xmlns="http://www.w3.org/2000/svg" xmlns:xlink="http://www.w3.org/1999/xlink" xml:space="preserve" xmlns:serif="http://www.serif.com/" style="fill-rule:evenodd;clip-rule:evenodd;stroke-linejoin:round;stroke-miterlimit:1.41421;"><path id="logo" d="M30.855,40c-5.073,0 -9.185,-4.108 -9.185,-9.177c0,-5.067 4.112,-9.175 9.185,-9.175c5.072,0 9.184,4.108 9.184,9.175c0,5.069 -4.112,9.177 -9.184,9.177Zm-21.67,0c-5.073,0 -9.185,-4.108 -9.185,-9.177c0,-5.067 4.112,-9.175 9.185,-9.175c5.072,0 9.186,4.108 9.186,9.175c0,5.069 -4.114,9.177 -9.186,9.177Zm21.67,-3.296c3.246,0 5.886,-2.638 5.886,-5.881c0,-3.241 -2.64,-5.881 -5.886,-5.881c-3.247,0 -5.887,2.64 -5.887,5.881c0,3.243 2.64,5.881 5.887,5.881Zm-21.67,0c3.246,0 5.888,-2.638 5.888,-5.881c0,-3.241 -2.642,-5.881 -5.888,-5.881c-3.246,0 -5.887,2.64 -5.887,5.881c0,3.243 2.641,5.881 5.887,5.881Zm127.232,-16.243c1.863,0 3.446,0.677 4.752,2.029l-2.327,2.007c-0.587,-0.717 -1.387,-1.076 -2.4,-1.076c-0.832,0 -1.548,0.29 -2.143,0.869c-0.596,0.578 -0.894,1.308 -0.894,2.189c0,0.882 0.298,1.611 0.894,2.191c0.595,0.579 1.311,0.868 2.143,0.868c1.013,0 1.813,-0.358 2.4,-1.077l2.327,2.008c-1.306,1.353 -2.889,2.03 -4.752,2.03c-1.73,0 -3.207,-0.584 -4.432,-1.749c-1.225,-1.167 -1.837,-2.59 -1.837,-4.271c0,-1.679 0.612,-3.104 1.837,-4.269c1.225,-1.165 2.702,-1.749 4.432,-1.749Zm-67.851,6.973c0.195,0.678 0.563,1.197 1.101,1.561c0.54,0.362 1.167,0.543 1.887,0.543c1.143,0 2.057,-0.465 2.743,-1.395l2.622,1.691c-1.308,1.776 -3.095,2.665 -5.365,2.665c-1.797,0 -3.306,-0.576 -4.531,-1.726c-1.226,-1.149 -1.837,-2.58 -1.837,-4.294c0,-1.696 0.603,-3.123 1.813,-4.282c1.208,-1.159 2.676,-1.737 4.407,-1.737c1.682,0 3.127,0.584 4.337,1.75c1.207,1.165 1.82,2.606 1.836,4.318c0,0.36 -0.024,0.661 -0.072,0.906l-8.941,0Zm24.888,4.771l-3.233,0l0,-1.492c-0.949,1.191 -2.295,1.785 -4.042,1.785c-1.616,0 -2.985,-0.578 -4.103,-1.736c-1.119,-1.158 -1.677,-2.586 -1.677,-4.283c0,-1.696 0.558,-3.122 1.677,-4.282c1.118,-1.158 2.487,-1.736 4.103,-1.736c1.747,0 3.093,0.596 4.042,1.786l0,-1.494l3.233,0l0,11.452Zm16.645,0l-3.233,0l0,-1.492c-0.948,1.191 -2.295,1.785 -4.041,1.785c-1.617,0 -2.986,-0.578 -4.103,-1.736c-1.12,-1.158 -1.678,-2.586 -1.678,-4.283c0,-1.696 0.558,-3.122 1.678,-4.282c1.117,-1.158 2.486,-1.736 4.103,-1.736c1.746,0 3.093,0.596 4.041,1.786l0,-8.393l3.233,0l0,18.351Zm16.572,0l-3.233,0l0,-1.492c-0.948,1.191 -2.294,1.785 -4.041,1.785c-1.616,0 -2.985,-0.578 -4.103,-1.736c-1.12,-1.158 -1.677,-2.586 -1.677,-4.283c0,-1.696 0.557,-3.122 1.677,-4.282c1.118,-1.158 2.487,-1.736 4.103,-1.736c1.747,0 3.093,0.596 4.041,1.786l0,-1.494l3.233,0l0,11.452Zm40.332,0.196l-1.568,0l-4.998,-11.329l3.186,-0.612l2.596,6.778l2.596,-6.778l3.185,0.612l-4.997,11.329Zm-18.349,-11.648l2.671,0l0,2.962l-2.671,0l0,8.49l-3.233,0l0,-8.49l-1.837,0l0,-2.962l1.837,0l0,-3.23l3.233,0l0,3.23Zm-87.01,11.452l-3.234,0l0,-18.351l3.234,0l0,18.351Zm95.939,0l-3.233,0l0,-11.452l3.233,0l0,11.452Zm-35.174,-3.498c0.638,-0.571 0.955,-1.313 0.955,-2.228c0,-0.912 -0.315,-1.652 -0.942,-2.215c-0.629,-0.561 -1.401,-0.843 -2.315,-0.843c-0.914,0 -1.686,0.282 -2.316,0.843c-0.628,0.563 -0.941,1.303 -0.941,2.215c0,0.915 0.313,1.652 0.941,2.215c0.63,0.564 1.402,0.844 2.316,0.844c0.914,0 1.682,-0.277 2.302,-0.831Zm-33.217,0c0.637,-0.571 0.954,-1.313 0.954,-2.228c0,-0.912 -0.314,-1.652 -0.942,-2.215c-0.629,-0.561 -1.401,-0.843 -2.314,-0.843c-0.915,0 -1.686,0.282 -2.316,0.843c-0.629,0.563 -0.942,1.303 -0.942,2.215c0,0.915 0.313,1.652 0.942,2.215c0.63,0.564 1.401,0.844 2.316,0.844c0.913,0 1.682,-0.277 2.302,-0.831Zm16.645,0c0.637,-0.571 0.955,-1.313 0.955,-2.228c0,-0.912 -0.315,-1.652 -0.943,-2.215c-0.629,-0.561 -1.401,-0.843 -2.314,-0.843c-0.915,0 -1.686,0.282 -2.315,0.843c-0.63,0.563 -0.943,1.303 -0.943,2.215c0,0.915 0.313,1.652 0.943,2.215c0.629,0.564 1.4,0.844 2.315,0.844c0.913,0 1.682,-0.277 2.302,-0.831Zm-37.198,-3.598l5.732,0c-0.164,-0.554 -0.511,-0.991 -1.041,-1.309c-0.531,-0.318 -1.148,-0.476 -1.85,-0.476c-0.621,0 -1.196,0.163 -1.726,0.488c-0.531,0.326 -0.903,0.759 -1.115,1.297Zm-59.454,-6.758c-5.073,0 -9.185,-4.108 -9.185,-9.175c0,-5.068 4.112,-9.176 9.185,-9.176c5.072,0 9.186,4.108 9.186,9.176c0,5.067 -4.114,9.175 -9.186,9.175Zm148.177,-0.582c-0.392,0.375 -0.856,0.563 -1.396,0.563c-0.539,0 -1.005,-0.193 -1.397,-0.576c-0.392,-0.382 -0.588,-0.843 -0.588,-1.382c0,-0.539 0.196,-0.999 0.588,-1.383c0.392,-0.383 0.858,-0.575 1.397,-0.575c0.54,0 1.004,0.192 1.396,0.575c0.391,0.384 0.588,0.844 0.588,1.383c0,0.539 -0.197,1.003 -0.588,1.395Zm-148.177,-2.713c3.246,0 5.888,-2.638 5.888,-5.88c0,-3.243 -2.642,-5.881 -5.888,-5.881c-3.246,0 -5.887,2.638 -5.887,5.881c0,3.242 2.641,5.88 5.887,5.88Z"/></svg>